HIERARCHY
ROOT joint_Root
{
	OFFSET 0.0 0.0 0.0
	CHANNELS 6 Xposition Yposition Zposition Zrotation Xrotation Yrotation 
	JOINT Hips
	{
		OFFSET -0.726466 93.3139 -2.00062
		CHANNELS 6 Xposition Yposition Zposition Zrotation Xrotation Yrotation 
		JOINT Spine
		{
			OFFSET 15.7357 0.0 0.0
			CHANNELS 6 Xposition Yposition Zposition Zrotation Xrotation Yrotation 
			JOINT Chest
			{
				OFFSET 8.98455 -0.406207 0.0
				CHANNELS 6 Xposition Yposition Zposition Zrotation Xrotation Yrotation 
				JOINT Neck
				{
					OFFSET 16.3773 0.0 0.0
					CHANNELS 6 Xposition Yposition Zposition Zrotation Xrotation Yrotation 
					JOINT Head
					{
						OFFSET 6.45672 0.0 0.0
						CHANNELS 6 Xposition Yposition Zposition Zrotation Xrotation Yrotation 
						End Site
						{
							OFFSET 0.0 0.0 0.0
						}
					}
				}
				JOINT Shoulder_L
				{
					OFFSET 12.9942 -0.242716 4.98039
					CHANNELS 6 Xposition Yposition Zposition Zrotation Xrotation Yrotation 
					JOINT UpperArm_L
					{
						OFFSET 5.34809 0.0 0.0
						CHANNELS 6 Xposition Yposition Zposition Zrotation Xrotation Yrotation 
						JOINT LowerArm_L
						{
							OFFSET 24.3286 1.87007e-05 0.0
							CHANNELS 6 Xposition Yposition Zposition Zrotation Xrotation Yrotation 
							JOINT Hand_L
							{
								OFFSET 22.2916 0.0 0.0
								CHANNELS 6 Xposition Yposition Zposition Zrotation Xrotation Yrotation 
								End Site
								{
									OFFSET 0.0 0.0 0.0
								}
							}
						}
					}
				}
				JOINT Shoulder_R
				{
					OFFSET 12.9945 -0.242716 -4.98039
					CHANNELS 6 Xposition Yposition Zposition Zrotation Xrotation Yrotation 
					JOINT UpperArm_R
					{
						OFFSET -5.34813 0.0 0.0
						CHANNELS 6 Xposition Yposition Zposition Zrotation Xrotation Yrotation 
						JOINT LowerArm_R
						{
							OFFSET -24.3289 0.000322201 0.0
							CHANNELS 6 Xposition Yposition Zposition Zrotation Xrotation Yrotation 
							JOINT Hand_R
							{
								OFFSET -22.2915 -0.000108084 0.0
								CHANNELS 6 Xposition Yposition Zposition Zrotation Xrotation Yrotation 
								End Site
								{
									OFFSET 0.0 0.0 0.0
								}
							}
						}
					}
				}
			}
		}
		JOINT UpperLeg_L
		{
			OFFSET -2.19248 -6.46944 0.0
			CHANNELS 6 Xposition Yposition Zposition Zrotation Xrotation Yrotation 
			JOINT LowerLeg_L
			{
				OFFSET 39.0811 0.0 -1.23785e-05
				CHANNELS 6 Xposition Yposition Zposition Zrotation Xrotation Yrotation 
				JOINT Foot_L
				{
					OFFSET 40.9854 0.0 -1.26872e-05
					CHANNELS 6 Xposition Yposition Zposition Zrotation Xrotation Yrotation 
					JOINT Toes_L
					{
						OFFSET 11.7543 0.0 0.0
						CHANNELS 6 Xposition Yposition Zposition Zrotation Xrotation Yrotation 
						End Site
						{
							OFFSET 0.0 0.0 0.0
						}
					}
				}
			}
		}
		JOINT UpperLeg_R
		{
			OFFSET -2.19251 6.46944 0.0
			CHANNELS 6 Xposition Yposition Zposition Zrotation Xrotation Yrotation 
			JOINT LowerLeg_R
			{
				OFFSET -39.0811 -0.00228153 -0.0401928
				CHANNELS 6 Xposition Yposition Zposition Zrotation Xrotation Yrotation 
				JOINT Foot_R
				{
					OFFSET -40.9854 0.0 0.0
					CHANNELS 6 Xposition Yposition Zposition Zrotation Xrotation Yrotation 
					JOINT Toes_R
					{
						OFFSET -11.7543 0.0 0.0
						CHANNELS 6 Xposition Yposition Zposition Zrotation Xrotation Yrotation 
						End Site
						{
							OFFSET 0.0 0.0 0.0
						}
					}
				}
			}
		}
	}
}
MOTION
Frames:	4
Frame Time:	0.0333333
0.000000 0.000000 0.000000 0.000000 0.000000 -0.000000 -0.651281 92.296000 -1.607450 87.868000 -0.270786 2.056570 15.735700 0.000005 -0.000001 84.459300 87.964000 -84.433700 8.984550 -0.406207 -0.000000 -3.713000 -0.395501 0.038345 16.377300 -0.000001 -0.000001 -0.100550 -1.980380 -0.351285 6.456720 -0.000001 -0.000000 -5.415890 -2.903270 6.045410 12.994200 -0.242716 4.980390 -82.499400 -13.496900 -60.571600 5.348090 -0.000007 -0.000001 -63.252300 -48.461300 -130.251000 24.328600 0.000019 0.000005 2.477100 2.420270 -45.690600 22.291600 -0.000001 0.000005 16.490500 5.554930 -8.941130 12.994500 -0.242716 -4.980390 93.944700 -8.177430 -64.136000 -5.348130 -0.000001 -0.000004 -67.782400 -42.695700 -136.568000 -24.328900 0.000322 -0.000009 -3.295410 -3.678240 -41.898800 -22.291500 -0.000108 -0.000004 18.125000 5.475830 -5.589380 -2.192480 -6.469440 -0.000000 -169.290000 -15.929400 -3.681050 39.081100 -0.000007 -0.000012 -0.151471 0.422062 19.742300 40.985400 -0.000006 -0.000013 -6.756450 0.619024 -62.059500 11.754300 -0.000000 0.000003 -0.000134 -0.001318 -16.627800 -2.192510 6.469440 -0.000001 174.585000 20.534800 178.460000 -39.081100 -0.002282 -0.040193 0.036349 -0.099809 18.308300 -40.985400 0.000008 0.000006 -1.078200 2.036170 -62.461200 -11.754300 -0.000006 -0.000006 -0.005212 -0.063506 -19.157200
0.000000 0.000000 0.000000 0.000000 0.000000 -0.000000 -0.639587 92.298400 -1.617200 87.884400 -0.299929 2.059790 15.735700 0.000005 -0.000001 84.400900 87.933000 -84.378700 8.984550 -0.406207 -0.000000 -3.651790 -0.405323 0.031576 16.377300 -0.000001 -0.000001 -0.119713 -2.011070 -0.310794 6.456720 -0.000001 -0.000000 -5.366680 -2.955550 6.080000 12.994200 -0.242716 4.980390 -82.591400 -13.277300 -60.482700 5.348090 -0.000007 -0.000001 -62.847700 -49.120600 -127.840000 24.328600 0.000019 0.000005 1.559820 1.559410 -45.016500 22.291600 -0.000001 0.000005 16.700300 5.558670 -9.121970 12.994500 -0.242716 -4.980390 93.810500 -7.842650 -63.982300 -5.348130 -0.000001 -0.000004 -67.280300 -43.620500 -134.484000 -24.328900 0.000322 -0.000009 -3.285250 -3.787650 -40.978900 -22.291500 -0.000108 -0.000004 18.004700 5.474370 -5.534470 -2.192480 -6.469440 -0.000000 -169.319000 -15.984000 -3.678510 39.081100 -0.000007 -0.000012 -0.150548 0.419638 19.736000 40.985400 -0.000006 -0.000013 -6.743240 0.601448 -62.047600 11.754300 -0.000000 0.000003 -0.000132 -0.001302 -16.627200 -2.192510 6.469440 -0.000001 174.569000 20.517500 178.452000 -39.081100 -0.002282 -0.040193 0.036292 -0.099657 18.304900 -40.985400 0.000008 0.000006 -1.033440 2.056890 -62.463300 -11.754300 -0.000006 -0.000006 -0.004844 -0.059951 -19.012300
0.000000 0.000000 0.000000 0.000000 0.000000 -0.000000 -0.629640 92.294500 -1.609480 87.884900 -0.360061 2.051270 15.735700 0.000005 -0.000001 83.760700 87.908700 -83.732500 8.984550 -0.406207 -0.000000 -3.608130 -0.457114 0.041894 16.377300 -0.000001 -0.000001 -0.228930 -2.012790 -0.309030 6.456720 -0.000001 -0.000000 -5.130240 -2.920510 6.136500 12.994200 -0.242716 4.980390 -82.700300 -13.008200 -60.356100 5.348090 -0.000007 -0.000001 -62.313700 -49.770900 -124.719000 24.328600 0.000019 0.000005 0.292584 0.301123 -44.160600 22.291600 -0.000001 0.000005 16.621700 5.560270 -9.200340 12.994500 -0.242716 -4.980390 93.665200 -7.513070 -63.898800 -5.348130 -0.000001 -0.000004 -66.742100 -44.510500 -131.730000 -24.328900 0.000322 -0.000009 -3.280460 -3.909150 -40.045800 -22.291500 -0.000108 -0.000004 18.008400 5.472550 -5.465830 -2.192480 -6.469440 -0.000000 -169.317000 -15.967600 -3.675440 39.081100 -0.000007 -0.000012 -0.152175 0.423769 19.753300 40.985400 -0.000006 -0.000013 -6.754820 0.565633 -62.075300 11.754300 -0.000000 0.000003 -0.000131 -0.001296 -16.627000 -2.192510 6.469440 -0.000001 174.559000 20.511200 178.438000 -39.081100 -0.002282 -0.040193 0.036709 -0.100883 18.310700 -40.985400 0.000008 0.000006 -1.020360 2.108030 -62.480400 -11.754300 -0.000006 -0.000006 -0.004864 -0.060143 -19.020100
0.000000 0.000000 0.000000 0.000000 0.000000 -0.000000 -0.611869 92.292800 -1.586980 87.905300 -0.444081 2.093280 15.735700 0.000005 -0.000001 83.575300 87.877900 -83.554000 8.984550 -0.406207 -0.000000 -3.548450 -0.476761 0.027770 16.377300 -0.000001 -0.000001 -0.296169 -2.060050 -0.287807 6.456720 -0.000001 -0.000000 -4.949890 -2.908630 6.156270 12.994200 -0.242716 4.980390 -82.871400 -12.630700 -60.233100 5.348090 -0.000007 -0.000001 -61.290300 -50.495500 -120.845000 24.328600 0.000019 0.000005 -0.370319 -0.394907 -43.167700 22.291600 -0.000001 0.000005 16.772100 5.560210 -9.197520 12.994500 -0.242716 -4.980390 93.479900 -7.093640 -63.782800 -5.348130 -0.000001 -0.000004 -65.897700 -45.370000 -128.308000 -24.328900 0.000322 -0.000009 -3.235210 -4.022380 -38.852700 -22.291500 -0.000108 -0.000004 18.145300 5.469470 -5.350480 -2.192480 -6.469440 -0.000000 -169.340000 -16.084700 -3.602910 39.081100 -0.000007 -0.000012 -0.150393 0.418316 19.774700 40.985400 -0.000006 -0.000013 -6.733530 0.555918 -62.110100 11.754300 -0.000000 0.000003 -0.000126 -0.001249 -16.625200 -2.192510 6.469440 -0.000001 174.501000 20.419700 178.510000 -39.081100 -0.002282 -0.040193 0.035897 -0.098617 18.277800 -40.985400 0.000008 0.000006 -1.104070 2.136770 -62.480700 -11.754300 -0.000006 -0.000006 -0.004965 -0.061130 -19.060300
